<svg width="70" height="74" viewBox="0 0 70 74" fill="none" xmlns="http://www.w3.org/2000/svg">
<path fill-rule="evenodd" clip-rule="evenodd" d="M56.9689 21.9358C56.9689 26.6958 55.4445 31.1018 52.8547 34.697C52.8477 34.7329 52.8378 34.7683 52.8248 34.8027C52.7006 35.1317 52.6488 35.5221 52.6488 36.0697C52.6488 37.5392 53.6958 38.7096 54.4158 39.5146C54.5877 39.7068 54.741 39.8781 54.8569 40.0278C55.8813 41.3546 57.8608 44.7993 57.5834 47.9636C57.5261 48.6168 57.4636 49.2267 57.4045 49.8037C57.1055 52.7204 56.8929 54.7953 57.8803 57.3663C58.0858 57.9013 58.2621 58.3806 58.4244 58.822C59.014 60.4253 59.4203 61.5299 60.3784 62.9989C60.6369 63.3952 60.2089 63.9139 59.7853 63.7002C57.6825 62.639 56.5174 61.713 55.188 59.6056C53.9826 57.6946 53.4586 55.7279 52.943 53.7926C52.7555 53.0892 52.5692 52.3899 52.3517 51.699C51.5357 49.107 50.4628 45.9982 47.9113 43.5176C47.6664 43.2795 47.438 43.0629 47.2241 42.8681C46.1438 42.169 45.3926 42.1614 44.5769 42.7408C43.7811 43.3062 43.3264 44.7761 43.7811 45.7938C43.7993 45.8346 43.814 45.8721 43.8254 45.9066C44.1657 46.6772 44.5452 47.4796 44.8757 48.1783C45.1835 48.8291 45.4488 49.3901 45.6001 49.7513C46.2444 51.2966 47.26 55.1334 46.1686 58.1185C45.9433 58.7347 45.7242 59.3078 45.5169 59.8498C44.4691 62.5903 43.7237 64.5397 44.0085 67.2773C44.0677 67.847 44.1133 68.3552 44.1552 68.8234C44.3075 70.5238 44.4125 71.6954 44.9557 73.361C45.1022 73.8103 44.5538 74.2012 44.2003 73.8857C42.4453 72.3193 41.5609 71.125 40.8252 68.7472C40.1581 66.591 40.1638 64.5565 40.1694 62.5544C40.1714 61.8268 40.1734 61.1032 40.1431 60.3799C40.0294 57.6662 39.802 54.3872 37.983 51.3342C36.6127 49.0345 36.1094 48.3588 35.1061 47.627C35.0568 47.591 35.0154 47.5464 34.9837 47.4961C34.9521 47.5464 34.9107 47.591 34.8614 47.627C33.8581 48.3588 33.3547 49.0345 31.9845 51.3342C30.1654 54.3872 29.9381 57.6662 29.8244 60.3799C29.7941 61.1031 29.7961 61.8264 29.7981 62.5539C29.8037 64.556 29.8093 66.591 29.1423 68.7472C28.4066 71.125 27.5222 72.3193 25.7671 73.8857C25.4137 74.2012 24.8652 73.8103 25.0118 73.361C25.555 71.6954 25.6599 70.5238 25.8123 68.8234C25.8542 68.3552 25.8997 67.847 25.959 67.2773C26.2437 64.5397 25.4984 62.5903 24.4506 59.8498C24.2433 59.3078 24.0242 58.7347 23.7989 58.1185C22.7075 55.1334 23.7231 51.2966 24.3673 49.7513C24.7019 48.9527 25.4912 47.1321 26.2348 45.5961C26.4648 44.8775 26.3002 43.9933 25.9137 43.3553C25.7446 43.1515 25.549 42.9387 25.3323 42.7189C24.4554 42.1109 23.6476 42.1857 22.4167 43.0736C22.2686 43.2121 22.1139 43.3601 21.952 43.5176C19.4005 45.9982 18.3275 49.107 17.5115 51.699C17.294 52.3899 17.1077 53.0892 16.9203 53.7926C16.4046 55.7279 15.8806 57.6946 14.6752 59.6056C13.3458 61.713 12.1808 62.639 10.0779 63.7002C9.65435 63.9139 9.22632 63.3952 9.48479 62.9989C10.4429 61.5299 10.8492 60.4253 11.4388 58.822C11.6012 58.3806 11.7774 57.9013 11.9829 57.3663C12.9703 54.7953 12.7577 52.7204 12.4587 49.8037C12.3996 49.2268 12.3371 48.6167 12.2798 47.9636C12.0024 44.7993 13.9819 41.3546 15.0063 40.0278C15.1223 39.8781 15.2755 39.7068 15.4475 39.5146C16.1675 38.7096 17.2144 37.5392 17.2144 36.0697C17.2144 35.5221 17.1627 35.1317 17.0384 34.8027C17.035 34.7936 17.0318 34.7845 17.0288 34.7753C14.4046 31.1658 12.8579 26.7304 12.8579 21.9358C12.8579 9.82098 22.7325 0 34.9134 0C47.0943 0 56.9689 9.82098 56.9689 21.9358ZM37.2518 17.6391C37.2518 17.1395 37.659 16.7345 38.1614 16.7345H39.374V14.0208C39.374 13.771 39.5776 13.5685 39.8288 13.5685H40.7762C41.0273 13.5685 41.2309 13.771 41.2309 14.0208V16.7345H42.4436C42.9459 16.7345 43.3531 17.1395 43.3531 17.6391V30.3407C43.3531 30.8403 42.9459 31.2453 42.4436 31.2453H41.2309V33.6952C41.2309 33.945 41.0273 34.1474 40.7762 34.1474H39.8288C39.5776 34.1474 39.374 33.945 39.374 33.6952V31.2453H38.1614C37.659 31.2453 37.2518 30.8403 37.2518 30.3407V17.6391ZM26.6031 17.6391C26.6031 17.1395 27.0103 16.7345 27.5126 16.7345H28.7252V14.0208C28.7252 13.771 28.9288 13.5685 29.18 13.5685H30.1274C30.3785 13.5685 30.5821 13.771 30.5821 14.0208V16.7345H31.7948C32.2971 16.7345 32.7043 17.1395 32.7043 17.6391V30.3407C32.7043 30.8403 32.2971 31.2453 31.7948 31.2453H30.5821V33.6952C30.5821 33.945 30.3785 34.1474 30.1274 34.1474H29.18C28.9288 34.1474 28.7252 33.945 28.7252 33.6952V31.2453H27.5126C27.0103 31.2453 26.6031 30.8403 26.6031 30.3407V17.6391Z" fill="white"/>
<path d="M6.80228 34.6766C7.29557 31.9332 9.06348 29.1553 10.3926 27.8297C10.6262 27.5968 11.0037 27.7284 11.082 28.048C11.6364 30.3106 12.0518 31.215 12.8641 32.9835C13.0907 33.4766 13.3481 34.037 13.6479 34.7128C13.7884 35.0294 13.989 35.5043 13.989 36.0697C13.989 36.2783 13.8325 36.6282 13.6329 36.906C13.6001 36.9518 13.5575 36.9886 13.5095 37.0181C11.5985 38.1963 10.0362 40.7082 8.65046 42.9363C7.72573 44.4231 6.87961 45.7836 6.06092 46.5369C4.22478 48.2265 2.85719 48.8181 0.548769 49.2969C0.0838338 49.3933 -0.193319 48.7816 0.160148 48.4661C1.47043 47.2965 2.15238 46.3355 3.14214 44.9408C3.41466 44.5567 3.71051 44.1398 4.04924 43.6766C5.67686 41.4509 6.01583 39.3927 6.49232 36.4994C6.58658 35.9271 6.68622 35.322 6.80228 34.6766Z" fill="white"/>
<path d="M59.6074 27.8297C60.9365 29.1553 62.7044 31.9332 63.1977 34.6766C63.3137 35.3218 63.4133 35.9266 63.5076 36.4987L63.5077 36.4994C63.9842 39.3927 64.3231 41.4509 65.9508 43.6766C66.2895 44.1398 66.5854 44.5568 66.8579 44.9408C67.8476 46.3355 68.5296 47.2965 69.8399 48.4661C70.1933 48.7816 69.9162 49.3933 69.4512 49.2969C67.1428 48.8181 65.7752 48.2265 63.9391 46.5369C63.1205 45.7837 62.2745 44.4234 61.3499 42.9367C59.9641 40.7087 58.4015 38.1963 56.4905 37.0181C56.4425 36.9886 56.3999 36.9518 56.3671 36.906C56.1675 36.6282 56.011 36.2783 56.011 36.0697C56.011 35.5043 56.2116 35.0294 56.3521 34.7128C56.6519 34.037 56.9093 33.4766 57.1359 32.9835C57.9482 31.215 58.3636 30.3106 58.918 28.048C58.9963 27.7284 59.3738 27.5968 59.6074 27.8297Z" fill="white"/>
</svg>