<svg width="1640" height="900" viewBox="0 0 1640 900" fill="none" xmlns="http://www.w3.org/2000/svg">
<rect x="0.5" y="0.5" width="1639" height="899" stroke="#383838"/>
<line x1="103.5" y1="1.96701e-08" x2="103.5" y2="900" stroke="#383838"/>
<line x1="207.5" y1="1.96701e-08" x2="207.5" y2="900" stroke="#383838"/>
<line x1="311.5" y1="1.96701e-08" x2="311.5" y2="900" stroke="#383838"/>
<line x1="415.5" y1="1.96701e-08" x2="415.5" y2="900" stroke="#383838"/>
<line x1="519.5" y1="1.96701e-08" x2="519.5" y2="900" stroke="#383838"/>
<line x1="623.5" y1="1.96701e-08" x2="623.5" y2="900" stroke="#383838"/>
<line x1="727.5" y1="1.96701e-08" x2="727.5" y2="900" stroke="#383838"/>
<line x1="1028.5" y1="1.96701e-08" x2="1028.5" y2="900" stroke="#383838"/>
<line x1="820.5" y1="1.96701e-08" x2="820.5" y2="900" stroke="#383838"/>
<line x1="924.5" y1="1.96701e-08" x2="924.5" y2="900" stroke="#383838"/>
<line x1="1132.5" y1="1.96701e-08" x2="1132.5" y2="900" stroke="#383838"/>
<line x1="1225.5" y1="1.96701e-08" x2="1225.5" y2="900" stroke="#383838"/>
<line x1="1329.5" y1="1.96701e-08" x2="1329.5" y2="900" stroke="#383838"/>
<line x1="1433.5" y1="1.96701e-08" x2="1433.5" y2="900" stroke="#383838"/>
<line x1="1537.5" y1="1.96701e-08" x2="1537.5" y2="900" stroke="#383838"/>
<line x1="1640" y1="100.5" x2="-5.77427e-08" y2="100.5" stroke="#383838"/>
<line x1="1640" y1="300.5" x2="-5.77427e-08" y2="300.5" stroke="#383838"/>
<line x1="1640" y1="700.5" x2="-5.77427e-08" y2="700.5" stroke="#383838"/>
<line x1="1640" y1="500.5" x2="-5.77427e-08" y2="500.5" stroke="#383838"/>
<line x1="1640" y1="0.5" x2="-5.77427e-08" y2="0.499891" stroke="#383838"/>
<line x1="1640" y1="200.5" x2="-5.77427e-08" y2="200.5" stroke="#383838"/>
<line x1="1640" y1="600.5" x2="-5.77427e-08" y2="600.5" stroke="#383838"/>
<line x1="1640" y1="400.5" x2="-5.77427e-08" y2="400.5" stroke="#383838"/>
<line x1="1640" y1="800.5" x2="-5.77427e-08" y2="800.5" stroke="#383838"/>
</svg>
