<svg width="224" height="64" viewBox="0 0 224 64" fill="none" xmlns="http://www.w3.org/2000/svg">
<path d="M11.5355 2.37868C12.0981 1.81607 12.8612 1.5 13.6569 1.5H220C221.657 1.5 223 2.84315 223 4.5V51.2826C223 52.9395 221.657 54.2826 220 54.2826H113.688C112.339 54.2826 111.047 54.828 110.106 55.7948L104.461 61.5927C103.896 62.1728 103.121 62.5 102.312 62.5H4C2.34315 62.5 1 61.1569 1 59.5V14.1569C1 13.3612 1.31607 12.5981 1.87868 12.0355L11.5355 2.37868Z" stroke="#67F38F" stroke-width="2"/>
<mask id="mask0_258_771" style="mask-type:alpha" maskUnits="userSpaceOnUse" x="169" y="59" width="55" height="5">
<path d="M169 60.5C169 59.9477 169.448 59.5 170 59.5H222.5C223.052 59.5 223.5 59.9477 223.5 60.5V62.5C223.5 63.0523 223.052 63.5 222.5 63.5H170C169.448 63.5 169 63.0523 169 62.5V60.5Z" fill="#D9D9D9"/>
</mask>
<g mask="url(#mask0_258_771)">
<path d="M196.781 59.5683L192.647 62.9683C192.429 63.1471 192.556 63.5 192.837 63.5H223.2C223.366 63.5 223.5 63.3657 223.5 63.2V59.8C223.5 59.6343 223.366 59.5 223.2 59.5H196.971C196.902 59.5 196.834 59.5241 196.781 59.5683Z" fill="#67F38F"/>
</g>
<path fill-rule="evenodd" clip-rule="evenodd" d="M170.647 62.9683L174.781 59.5683C174.834 59.5241 174.902 59.5 174.971 59.5H180.211C180.487 59.5 180.617 59.841 180.41 60.0242L176.585 63.4242C176.53 63.473 176.46 63.5 176.386 63.5H170.837C170.556 63.5 170.429 63.1471 170.647 62.9683ZM181.647 62.9683L185.781 59.5683C185.834 59.5241 185.902 59.5 185.971 59.5H191.211C191.487 59.5 191.617 59.841 191.41 60.0242L187.585 63.4242C187.53 63.473 187.46 63.5 187.386 63.5H181.837C181.556 63.5 181.429 63.1471 181.647 62.9683Z" fill="#67F38F"/>
</svg>
