<svg width="224" height="63" viewBox="0 0 224 63" fill="none" xmlns="http://www.w3.org/2000/svg">
<path d="M10.8284 1.17157C11.5786 0.421428 12.596 0 13.6569 0H220C222.209 0 224 1.79086 224 4V50.7826C224 52.9917 222.209 54.7826 220 54.7826H113.688C112.609 54.7826 111.575 55.2189 110.822 55.9923L105.178 61.7903C104.425 62.5637 103.391 63 102.312 63H4C1.79086 63 0 61.2091 0 59L0 13.6569C0 12.596 0.421427 11.5786 1.17157 10.8284L10.8284 1.17157Z" fill="url(#paint0_linear_215_401)"/>
<mask id="mask0_215_401" style="mask-type:alpha" maskUnits="userSpaceOnUse" x="169" y="59" width="55" height="4">
<path d="M169 60C169 59.4477 169.448 59 170 59H222.5C223.052 59 223.5 59.4477 223.5 60V62C223.5 62.5523 223.052 63 222.5 63H170C169.448 63 169 62.5523 169 62V60Z" fill="#D9D9D9"/>
</mask>
<g mask="url(#mask0_215_401)">
<path d="M196.781 59.0683L192.647 62.4683C192.429 62.6471 192.556 63 192.837 63H223.2C223.366 63 223.5 62.8657 223.5 62.7V59.3C223.5 59.1343 223.366 59 223.2 59H196.971C196.902 59 196.834 59.0241 196.781 59.0683Z" fill="#67F38F"/>
</g>
<path fill-rule="evenodd" clip-rule="evenodd" d="M170.647 62.4683L174.781 59.0683C174.834 59.0241 174.902 59 174.971 59H180.211C180.487 59 180.617 59.341 180.41 59.5242L176.585 62.9242C176.53 62.973 176.46 63 176.386 63H170.837C170.556 63 170.429 62.6471 170.647 62.4683ZM181.647 62.4683L185.781 59.0683C185.834 59.0241 185.902 59 185.971 59H191.211C191.487 59 191.617 59.341 191.41 59.5242L187.585 62.9242C187.53 62.973 187.46 63 187.386 63H181.837C181.556 63 181.429 62.6471 181.647 62.4683Z" fill="#67F38F"/>
<defs>
<linearGradient id="paint0_linear_215_401" x1="-73" y1="27.3913" x2="222.559" y2="78.6178" gradientUnits="userSpaceOnUse">
<stop stop-color="#67F38F"/>
<stop offset="1" stop-color="#00E540"/>
</linearGradient>
</defs>
</svg>
